# xmcd CD database file
#
# Track frame offsets:
#	187
#	13105
#	23267
#	37267
#	56687
#	69130
#	87195
#	101482
#	118802
#	134840
#
# Disc length: 2022 seconds
#
# Revision: 5
# Processed by: cddbd v1.4PL0 Copyright (c) Steve Scherf et al.
# Submitted via: CDex 1.50
#
DISCID=8207e40a
DTITLE=Lyle Lovett - Lyle Lovett
DYEAR=1986
DGENRE=Country
TTITLE0=Cowboy Man
TTITLE1=God Will
TTITLE2=Farther Down the Line
TTITLE3=This Old Porch
TTITLE4=Why I Don't Know
TTITLE5=If I Were the Man You Wanted
TTITLE6=You Can't Resist It
TTITLE7=The Waltzing Fool
TTITLE8=An Acceptable Level of Ecstasy (The Wedding Song)
TTITLE9=Closing Time
EXTD=LABEL =MCA Records, Inc.\nID =MCAD-31307\nUPC =07674-31307-24\nCOPYRIGHT =1986 YEAR: 1986
EXTT0=
EXTT1=
EXTT2=
EXTT3=
EXTT4=
EXTT5=
EXTT6=
EXTT7=
EXTT8=
EXTT9=
PLAYORDER=
